<?xml version="1.0" standalone="no"?>
<!DOCTYPE svg PUBLIC "-//W3C//DTD SVG 20010904//EN"
 "http://www.w3.org/TR/2001/REC-SVG-20010904/DTD/svg10.dtd">
<svg version="1.0" xmlns="http://www.w3.org/2000/svg"
 width="512.000000pt" height="512.000000pt" viewBox="0 0 512.000000 512.000000"
 preserveAspectRatio="xMidYMid meet">
<metadata>
Created by potrace 1.11, written by Peter Selinger 2001-2013
</metadata>
<g transform="translate(0.000000,512.000000) scale(0.100000,-0.100000)"
fill="#000000" stroke="none">
<path d="M1742 4574 l-162 -156 0 -194 0 -194 -650 0 -650 0 2 -1724 c3 -1724
3 -1725 24 -1752 11 -15 33 -37 48 -48 l27 -21 1881 -3 1881 -2 35 -32 c20
-17 68 -46 106 -64 251 -119 550 -13 677 240 21 43 39 86 39 95 0 9 -11 -9
-23 -39 -123 -299 -485 -415 -753 -242 -276 180 -318 548 -89 777 188 188 482
204 693 36 l52 -41 0 1425 0 1425 -645 0 -645 0 0 168 0 169 -161 166 -161
167 -682 0 -683 0 -161 -156z m1528 -344 l0 -170 -25 0 c-16 0 -25 -6 -25 -15
0 -13 -81 -15 -665 -15 l-665 0 0 185 0 185 690 0 690 0 0 -170z m-568 -1338
c120 -53 189 -164 196 -317 10 -212 -100 -422 -359 -690 l-107 -110 250 3
c178 2 254 -1 264 -9 17 -14 19 -100 2 -117 -9 -9 -105 -12 -372 -12 -399 0
-396 0 -396 65 0 27 14 43 106 126 121 107 253 251 326 354 98 138 140 247
139 366 0 158 -93 251 -236 236 -66 -7 -124 -36 -185 -93 -26 -24 -56 -44 -66
-44 -10 0 -37 17 -58 37 l-39 36 61 58 c70 66 136 107 201 126 67 19 214 11
273 -15z m-798 -100 c126 -59 220 -178 262 -332 23 -82 26 -309 5 -390 -47
-187 -168 -331 -319 -376 -66 -21 -199 -20 -264 2 -158 51 -271 189 -314 380
-25 114 -16 334 18 425 63 169 152 263 296 310 44 15 78 18 153 16 82 -3 106
-8 163 -35z m1681 23 c162 -42 276 -169 325 -361 28 -107 28 -291 0 -398 -66
-259 -262 -404 -505 -375 -183 22 -332 172 -386 389 -21 81 -18 308 5 389 50
183 181 324 332 360 62 14 165 12 229 -4z m-1245 -1585 l0 -60 53 0 52 1 -44
40 c-41 36 -43 41 -29 56 15 14 19 14 45 -5 51 -36 67 -60 53 -77 -11 -13 -8
-15 19 -15 26 0 31 -4 31 -25 0 -25 -1 -25 -83 -25 -46 0 -86 -2 -89 -5 -5 -5
18 -135 26 -142 2 -3 68 85 86 116 6 10 12 11 29 2 11 -7 21 -16 21 -20 0 -5
-25 -41 -57 -81 l-56 -73 18 -33 c10 -19 40 -55 67 -80 52 -49 55 -55 33 -74
-21 -17 -83 34 -134 112 l-41 60 0 -99 c0 -64 -4 -103 -12 -111 -19 -19 -124
-16 -132 4 -10 26 2 34 50 34 l44 0 0 77 0 77 -75 -74 c-73 -73 -75 -74 -95
-55 l-20 18 21 23 c21 22 16 22 -86 -12 -88 -30 -109 -34 -116 -23 -17 27 -8
39 36 51 l45 12 0 87 0 88 -37 3 c-31 2 -39 7 -41 26 -3 20 1 22 37 22 l41 0
0 70 0 70 -40 0 c-36 0 -40 3 -40 25 l0 25 105 0 105 0 0 -25 c0 -22 -4 -25
-40 -25 l-40 0 0 -70 0 -70 35 0 c31 0 35 -3 35 -25 0 -22 -4 -25 -35 -25
l-35 0 0 -80 0 -79 41 14 c39 14 41 14 46 -5 3 -11 9 -20 13 -20 4 0 37 27 74
61 l66 61 0 84 0 84 -80 0 c-79 0 -80 0 -80 25 0 25 1 25 80 25 l80 0 0 53 c0
58 4 67 32 67 15 0 18 -8 18 -60z m567 20 l16 -40 129 0 c128 0 129 0 126 -22
-3 -21 -9 -23 -68 -26 -64 -3 -65 -3 -88 -42 l-23 -40 71 0 70 0 0 -186 c0
-216 1 -213 -91 -214 -43 0 -58 4 -63 16 -10 26 3 34 55 34 l49 0 0 96 c0 83
-2 95 -14 84 -17 -13 -20 -12 -99 49 -35 27 -56 49 -53 58 4 10 -6 13 -40 13
-30 0 -43 -4 -38 -11 3 -6 -13 -31 -37 -55 l-43 -44 122 0 123 0 -3 -77 -3
-78 -95 -3 c-70 -2 -97 -7 -103 -17 -4 -8 -17 -15 -27 -15 -18 0 -20 7 -20 90
0 82 -8 107 -25 80 -8 -12 -35 6 -35 22 0 5 24 31 53 58 l52 49 -57 1 -58 0
-2 -172 -3 -173 -25 0 -25 0 0 195 0 195 68 3 c49 2 67 6 64 15 -29 66 -28 66
-102 69 -64 3 -70 5 -73 26 -3 22 -3 22 132 22 140 0 150 3 126 40 -5 9 -5 19
2 27 19 23 39 14 55 -27z m921 -276 l2 -270 -23 -13 c-13 -7 -47 -11 -77 -9
-48 3 -55 6 -58 26 -3 21 0 22 52 22 l56 0 0 230 0 230 -225 0 -225 0 0 -190
c0 -106 4 -190 9 -190 10 0 71 90 89 132 10 25 7 32 -34 88 -25 34 -43 68 -40
76 10 26 36 14 68 -31 36 -50 39 -49 58 33 10 45 15 52 36 52 30 0 30 -13 3
-110 l-20 -75 33 -63 c28 -53 31 -64 18 -72 -23 -15 -27 -13 -53 31 l-24 40
-31 -53 c-41 -73 -76 -105 -97 -88 -13 11 -15 6 -15 -39 0 -48 -2 -51 -25 -51
l-25 0 0 278 c0 153 3 282 7 285 4 4 126 6 272 5 l266 -3 3 -271z m-2378 241
c0 -22 -4 -25 -35 -25 l-35 0 0 -69 c0 -69 0 -70 28 -73 19 -2 27 -9 27 -23 0
-14 -8 -21 -27 -23 -28 -3 -28 -4 -28 -77 l0 -75 26 10 c14 6 30 8 35 4 15 -9
10 -41 -8 -49 -10 -4 -53 -20 -95 -36 -77 -28 -78 -28 -89 -8 -13 24 -8 30 34
45 l32 11 3 86 3 86 -33 3 c-25 2 -33 8 -33 23 0 15 8 21 33 23 l32 3 0 70 0
69 -34 0 c-37 0 -51 12 -42 35 4 12 27 15 106 15 l100 0 0 -25z m390 0 c0 -24
-2 -25 -73 -25 l-73 0 -17 -47 c-21 -60 -21 -60 5 -59 16 1 41 -22 90 -83 37
-47 68 -87 68 -90 0 -4 -9 -12 -20 -19 -18 -11 -25 -5 -81 66 -33 42 -65 79
-70 80 -5 2 -9 -71 -9 -177 l0 -181 -25 0 -25 0 0 166 0 167 -22 -29 c-36 -49
-91 -104 -104 -104 -6 0 -17 7 -24 15 -10 12 -2 26 48 80 33 36 76 98 96 138
l36 72 -85 3 c-83 3 -85 3 -85 27 l0 25 185 0 185 0 0 -25z m1885 -65 c3 -6
-3 -49 -15 -96 l-22 -86 37 -70 c30 -56 35 -72 24 -79 -17 -11 -39 -12 -39 -1
0 4 -11 24 -23 45 l-24 39 -31 -49 c-53 -79 -69 -95 -92 -88 -27 9 -25 21 10
62 17 18 41 56 55 84 l26 50 -46 65 c-50 72 -52 79 -29 88 20 8 37 -6 65 -50
11 -19 24 -32 29 -29 4 2 13 32 19 65 10 48 16 60 31 60 10 0 22 -5 25 -10z
m-1494 -129 c29 -48 36 -67 27 -73 -24 -15 -45 -8 -57 20 -7 15 -24 44 -39 65
-21 32 -23 40 -11 48 25 16 41 5 80 -60z"/>
<path d="M1663 2700 c-137 -29 -227 -141 -259 -323 -34 -194 17 -399 125 -500
116 -108 308 -98 413 22 119 135 145 450 52 632 -64 126 -200 196 -331 169z"/>
<path d="M3401 2700 c-163 -34 -260 -199 -261 -441 0 -100 23 -217 56 -281 93
-185 315 -235 461 -104 95 86 137 200 138 376 0 128 -14 197 -56 280 -65 130
-201 198 -338 170z"/>
<path d="M2809 1127 c11 -19 18 -37 14 -40 -3 -4 21 -7 55 -7 58 0 61 1 81 34
12 18 21 36 21 40 0 3 -43 6 -96 6 l-96 0 21 -33z"/>
<path d="M2991 1012 c13 -10 41 -31 62 -46 l37 -28 0 46 0 46 -61 0 -62 0 24
-18z"/>
<path d="M2810 845 l0 -35 75 0 75 0 0 35 0 35 -75 0 -75 0 0 -35z"/>
</g>
</svg>
